<?xml version="1.0" standalone="no"?>
<!DOCTYPE svg PUBLIC "-//W3C//DTD SVG 20010904//EN"
 "http://www.w3.org/TR/2001/REC-SVG-20010904/DTD/svg10.dtd">
<svg version="1.0" xmlns="http://www.w3.org/2000/svg"
 width="482.000000pt" height="482.000000pt" viewBox="0 0 482.000000 482.000000"
 preserveAspectRatio="xMidYMid meet">
<metadata>
Created by potrace 1.11, written by Peter Selinger 2001-2013
</metadata>
<g transform="translate(0.000000,482.000000) scale(0.100000,-0.100000)"
fill="#000000" stroke="none">
<path d="M2255 4258 c-44 -5 -131 -20 -194 -34 -755 -169 -1323 -784 -1436
-1555 -19 -137 -19 -381 0 -518 113 -770 682 -1387 1436 -1555 1020 -226 2020
425 2228 1449 110 545 -37 1127 -394 1555 -399 478 -1021 728 -1640 658z
m-217 -852 c63 -20 118 -53 170 -104 83 -81 83 -76 -15 -173 -47 -46 -87 -79
-89 -74 -30 78 -101 128 -190 133 -55 4 -69 1 -109 -23 -88 -51 -139 -175
-114 -277 22 -95 113 -168 209 -168 81 0 149 36 189 102 10 15 70 86 135 157
83 92 128 151 151 199 49 101 143 184 252 224 44 16 81 21 153 20 109 0 184
-23 263 -78 26 -19 50 -34 55 -34 4 0 63 18 130 40 68 22 128 38 133 34 14 -8
40 -76 35 -89 -2 -7 -47 -38 -100 -70 -53 -32 -96 -64 -96 -71 0 -7 7 -39 15
-71 59 -226 -47 -459 -255 -557 -61 -29 -72 -31 -185 -31 -115 0 -123 1 -186
32 -81 40 -158 107 -195 171 -15 26 -29 49 -31 51 -2 3 -47 -39 -101 -92 -75
-73 -115 -104 -168 -129 -66 -32 -74 -33 -189 -33 -117 0 -122 1 -196 36 -124
60 -209 162 -244 294 -65 252 95 530 340 591 55 14 173 9 233 -10z m52 -1104
c69 -27 143 -84 183 -140 l31 -43 -84 -84 -83 -84 -28 44 c-125 197 -399 93
-399 -152 0 -140 133 -246 268 -213 53 12 114 56 142 102 9 15 32 45 51 66
162 179 193 218 224 279 46 92 122 167 213 211 61 29 87 35 160 40 128 7 251
-30 328 -99 20 -18 23 -18 155 26 73 25 134 45 135 45 4 1 46 -101 43 -103 -2
-2 -50 -32 -106 -66 -57 -35 -103 -66 -103 -69 0 -4 7 -29 16 -57 22 -68 22
-214 0 -287 -34 -114 -131 -230 -236 -281 -137 -67 -301 -59 -432 20 -64 38
-137 114 -163 169 l-17 37 -87 -87 c-149 -150 -212 -180 -371 -180 -81 0 -116
5 -156 21 -287 114 -388 446 -215 710 59 90 130 146 235 184 70 26 218 21 296
-9z"/>
<path d="M2685 3172 c-45 -21 -91 -70 -112 -119 -18 -45 -17 -156 3 -196 30
-59 63 -94 108 -116 53 -25 128 -28 178 -7 50 21 112 93 127 149 28 98 -14
221 -93 274 -54 36 -151 43 -211 15z"/>
<path d="M2727 2086 c-100 -37 -155 -132 -144 -248 7 -75 46 -141 107 -183 39
-26 54 -30 110 -30 133 0 219 94 220 238 0 97 -44 173 -123 214 -42 21 -125
26 -170 9z"/>
</g>
</svg>
